HIERARCHY
ROOT Hips
{
	OFFSET 0.000000 89.005402 0.000000
	CHANNELS 6 Xposition Yposition Zposition Xrotation Yrotation Zrotation
	JOINT Spine
	{
		OFFSET 0.116900 10.681000 0.373400
		CHANNELS 3 Xrotation Yrotation Zrotation
		JOINT Spine1
		{
			OFFSET 0.000000 13.840401 0.053500
			CHANNELS 3 Xrotation Yrotation Zrotation
			JOINT Spine2
			{
				OFFSET 0.000000 14.712700 -0.366200
				CHANNELS 3 Xrotation Yrotation Zrotation
				JOINT Neck
				{
					OFFSET 0.000000 35.415497 -3.314200
					CHANNELS 3 Xrotation Yrotation Zrotation
					JOINT Head
					{
						OFFSET 0.000000 16.899200 1.218300
						CHANNELS 3 Xrotation Yrotation Zrotation
						JOINT HeadTop_End
						{
							OFFSET 0.000000 22.206207 2.192500
							CHANNELS 3 Xrotation Yrotation Zrotation
							End Site
							{
								OFFSET 0.000000 22.314178 0.000000
							}
						}
					}
				}
				JOINT LeftShoulder
				{
					OFFSET 12.896400 26.716293 -4.548400
					CHANNELS 3 Xrotation Yrotation Zrotation
					JOINT LeftArm
					{
						OFFSET 19.027000 -4.857010 -1.718400
						CHANNELS 3 Xrotation Yrotation Zrotation
						JOINT LeftForeArm
						{
							OFFSET 24.179897 0.000000 0.000000
							CHANNELS 3 Xrotation Yrotation Zrotation
							JOINT LeftHand
							{
								OFFSET 27.156403 0.000000 0.000000
								CHANNELS 3 Xrotation Yrotation Zrotation
								JOINT LeftHandIndex1
								{
									OFFSET 16.441200 0.000000 0.000000
									CHANNELS 3 Xrotation Yrotation Zrotation
									JOINT LeftHandIndex2
									{
										OFFSET 4.821899 0.000000 0.000000
										CHANNELS 3 Xrotation Yrotation Zrotation
										JOINT LeftHandIndex3
										{
											OFFSET 6.386497 0.000000 0.000000
											CHANNELS 3 Xrotation Yrotation Zrotation
											JOINT LeftHandIndex4
											{
												OFFSET 5.188988 0.000000 0.000000
												CHANNELS 3 Xrotation Yrotation Zrotation
												End Site
												{
													OFFSET -0.178703 5.185913 0.000177
												}
											}
										}
									}
								}
								JOINT LeftHandThumb1
								{
									OFFSET 6.534897 -5.032593 5.900300
									CHANNELS 3 Xrotation Yrotation Zrotation
									JOINT LeftHandThumb2
									{
										OFFSET 3.818176 -2.204422 2.204423
										CHANNELS 3 Xrotation Yrotation Zrotation
										JOINT LeftHandThumb3
										{
											OFFSET 3.252098 -1.877594 1.877601
											CHANNELS 3 Xrotation Yrotation Zrotation
											JOINT LeftHandThumb4
											{
												OFFSET 5.251778 -3.032120 3.032117
												CHANNELS 3 Xrotation Yrotation Zrotation
												End Site
												{
													OFFSET 0.000023 6.780014 0.000000
												}
											}
										}
									}
								}
							}
						}
					}
				}
				JOINT RightShoulder
				{
					OFFSET -12.896300 26.716293 -4.548400
					CHANNELS 3 Xrotation Yrotation Zrotation
					JOINT RightArm
					{
						OFFSET -19.027000 -4.857010 -1.718400
						CHANNELS 3 Xrotation Yrotation Zrotation
						JOINT RightForeArm
						{
							OFFSET -24.179897 0.000000 0.000000
							CHANNELS 3 Xrotation Yrotation Zrotation
							JOINT RightHand
							{
								OFFSET -27.156403 0.000000 0.000000
								CHANNELS 3 Xrotation Yrotation Zrotation
								JOINT RightHandThumb1
								{
									OFFSET -6.591202 -4.852203 5.988100
									CHANNELS 3 Xrotation Yrotation Zrotation
									JOINT RightHandThumb2
									{
										OFFSET -3.818176 -2.204422 2.204423
										CHANNELS 3 Xrotation Yrotation Zrotation
										JOINT RightHandThumb3
										{
											OFFSET -3.252098 -1.877594 1.877601
											CHANNELS 3 Xrotation Yrotation Zrotation
											JOINT RightHandThumb4
											{
												OFFSET -5.251778 -3.032120 3.032117
												CHANNELS 3 Xrotation Yrotation Zrotation
												End Site
												{
													OFFSET -0.000023 6.780014 0.000000
												}
											}
										}
									}
								}
								JOINT RightHandIndex1
								{
									OFFSET -16.029404 0.000000 0.000000
									CHANNELS 3 Xrotation Yrotation Zrotation
									JOINT RightHandIndex2
									{
										OFFSET -5.213303 0.000000 0.000000
										CHANNELS 3 Xrotation Yrotation Zrotation
										JOINT RightHandIndex3
										{
											OFFSET -6.386528 0.000000 0.000000
											CHANNELS 3 Xrotation Yrotation Zrotation
											JOINT RightHandIndex4
											{
												OFFSET -5.189026 0.000000 0.000000
												CHANNELS 3 Xrotation Yrotation Zrotation
												End Site
												{
													OFFSET 0.236702 5.183624 0.001972
												}
											}
										}
									}
								}
							}
						}
					}
				}
			}
		}
	}
	JOINT LeftUpLeg
	{
		OFFSET 14.073000 -7.904099 -1.463000
		CHANNELS 3 Xrotation Yrotation Zrotation
		JOINT LeftLeg
		{
			OFFSET -0.109806 -34.073280 4.093200
			CHANNELS 3 Xrotation Yrotation Zrotation
			JOINT LeftFoot
			{
				OFFSET 0.109806 -29.899420 -6.319000
				CHANNELS 3 Xrotation Yrotation Zrotation
				JOINT LeftToeBase
				{
					OFFSET 1.551100 -14.988700 20.535801
					CHANNELS 3 Xrotation Yrotation Zrotation
					JOINT LeftToe_End
					{
						OFFSET 0.221200 0.570800 13.248301
						CHANNELS 3 Xrotation Yrotation Zrotation
						End Site
						{
							OFFSET 0.000000 13.262435 0.000000
						}
					}
				}
			}
		}
	}
	JOINT RightUpLeg
	{
		OFFSET -13.839300 -7.904099 -1.463000
		CHANNELS 3 Xrotation Yrotation Zrotation
		JOINT RightLeg
		{
			OFFSET 0.109694 -34.073219 4.093300
			CHANNELS 3 Xrotation Yrotation Zrotation
			JOINT RightFoot
			{
				OFFSET -0.109694 -29.899384 -6.319200
				CHANNELS 3 Xrotation Yrotation Zrotation
				JOINT RightToeBase
				{
					OFFSET -1.551100 -14.988700 20.535801
					CHANNELS 3 Xrotation Yrotation Zrotation
					JOINT RightToe_End
					{
						OFFSET -0.221200 0.570900 13.248299
						CHANNELS 3 Xrotation Yrotation Zrotation
						End Site
						{
							OFFSET 0.000000 13.262440 0.000000
						}
					}
				}
			}
		}
	}
}
MOTION
Frames: 7
Frame Time: 0.033333
-0.051457 75.348961 1.809858 -0.252290 0.002220 -1.081433 16.586761 0.252584 0.373111 20.119543 0.469852 0.900696 12.592130 0.364574 0.927906 2.981594 -0.915419 0.127353 -21.725496 3.041513 -1.451454 -0.000003 0.000000 -0.000000 20.445949 -17.628643 8.705108 -33.570195 -17.336485 -36.862258 -2.640482 -52.136193 -20.395447 -54.784135 -19.506889 -15.020214 0.652341 9.453935 -24.543689 0.393116 2.026196 -21.957649 0.522844 0.707776 -27.284572 0.000000 -0.000001 0.000001 36.774544 8.584258 -16.863114 2.295255 23.044194 15.130541 0.424781 18.444388 14.528070 0.000001 0.000001 -0.000003 18.311850 13.497346 -7.979215 -29.297181 10.275819 43.682540 -39.182453 60.008819 40.506170 -15.081138 -0.977427 14.319037 40.076145 0.945891 20.753829 5.156840 -21.099689 -19.108113 4.784353 -12.461131 -21.495579 -0.000001 -0.000000 0.000001 18.327833 0.099125 38.977963 -3.924275 9.265831 32.256265 -5.637814 12.214601 12.777116 0.000003 0.000001 -0.000000 -34.962307 1.238411 28.397401 48.209992 -5.887282 -8.381430 -13.334452 -7.569548 -11.923037 -3.786469 -12.891914 -1.582454 0.000000 0.000000 -0.000000 -37.635596 -11.651492 -24.626064 48.550262 8.099833 -2.112390 -12.461710 2.003595 13.999021 -6.660686 9.515745 11.515353 -0.000000 -0.000000 0.000001 
-0.141907 75.421715 1.797819 -0.051579 0.399159 -0.966045 16.512903 0.203322 0.439936 20.027209 0.426871 0.935359 12.650893 0.314259 0.953157 2.981568 -0.915419 0.127353 -21.725488 3.041512 -1.451453 -0.000001 -0.000000 0.000000 20.263730 -17.530765 8.753535 -32.920597 -17.585645 -36.873657 -2.877070 -52.828429 -20.615031 -54.818070 -19.583897 -15.033521 0.652341 9.453942 -24.543689 0.393116 2.026197 -21.957651 0.522842 0.707777 -27.284570 -0.000000 -0.000001 -0.000000 36.774544 8.584263 -16.863116 2.295252 23.044198 15.130541 0.424776 18.444391 14.528075 0.000000 -0.000000 0.000000 18.071711 13.363871 -7.895361 -29.083584 10.456156 43.918212 -39.213834 60.096915 40.668572 -14.620363 -0.345508 14.333837 39.809262 0.989532 20.884736 5.073255 -21.172729 -18.963573 4.697097 -12.484681 -21.315651 -0.000000 -0.000001 0.000005 18.307327 -0.104261 38.968633 -3.833482 9.139478 32.079804 -5.525524 12.093305 12.600212 -0.000001 -0.000001 -0.000000 -35.071082 0.853671 27.702462 47.907644 -5.564407 -7.911264 -13.031856 -7.155482 -12.250828 -2.970413 -12.891999 -1.582339 -0.000000 -0.000000 0.000000 -37.729446 -11.859230 -24.862893 48.463993 8.261632 -2.101386 -12.554017 1.930133 13.950227 -6.436559 9.442419 11.103826 -0.000000 0.000000 0.000001 
-0.361807 75.590614 1.736962 0.143386 0.720102 -0.899878 16.315671 0.077948 0.614955 19.785420 0.317444 1.023038 12.802915 0.186113 1.017166 2.981593 -0.915419 0.127353 -21.725486 3.041512 -1.451453 -0.000002 -0.000000 0.000000 19.769272 -17.298335 8.932860 -31.152817 -18.218719 -36.853679 -3.578518 -54.729537 -21.270153 -54.927777 -19.803901 -15.091300 0.652341 9.453941 -24.543689 0.393115 2.026194 -21.957655 0.522844 0.707776 -27.284569 0.000001 -0.000000 0.000001 36.774548 8.584261 -16.863114 2.295251 23.044199 15.130542 0.424786 18.444386 14.528075 0.000002 -0.000000 -0.000002 17.409285 12.988508 -7.669553 -28.529709 10.941086 44.513688 -39.203937 60.305878 41.030507 -13.374121 1.417394 14.300845 39.070687 1.109449 21.250643 4.843971 -21.377380 -18.563428 4.457174 -12.551601 -20.817052 0.000000 -0.000000 0.000002 18.248679 -0.667544 38.942279 -3.586032 8.786456 31.592996 -5.218895 11.754623 12.111697 0.000001 -0.000000 0.000001 -34.969561 0.400829 27.059109 47.261074 -4.936631 -7.352182 -12.517819 -6.711695 -12.822417 -2.494780 -12.892085 -1.582231 0.000000 0.000000 0.000000 -37.693164 -12.033722 -24.848998 48.169984 8.140882 -1.974157 -12.507038 1.950826 13.777901 -6.319338 9.405246 10.889265 -0.000000 -0.000000 0.000000 
-0.696468 75.825272 1.626790 0.315451 0.963839 -0.887837 16.024939 -0.088877 0.859545 19.440540 0.171218 1.142045 13.005230 0.015341 1.104881 2.981569 -0.915419 0.127352 -21.725479 3.041513 -1.451453 0.000000 -0.000000 0.000000 19.040571 -17.027412 9.295493 -28.541786 -19.060201 -36.731634 -4.780052 -57.572791 -22.407018 -55.125463 -20.150272 -15.221089 0.652344 9.453935 -24.543689 0.393119 2.026194 -21.957653 0.522845 0.707776 -27.284569 -0.000000 -0.000002 0.000002 36.774548 8.584257 -16.863117 2.295249 23.044196 15.130539 0.424785 18.444386 14.528072 -0.000002 -0.000000 -0.000001 16.413496 12.406631 -7.345459 -27.767171 11.648140 45.300639 -38.995391 60.553828 41.402735 -11.525182 4.104101 14.063316 37.953975 1.288161 21.814180 4.502861 -21.693579 -17.957846 4.098986 -12.657426 -20.061114 -0.000000 -0.000000 0.000001 18.154785 -1.520404 38.900834 -3.222499 8.243571 30.861110 -4.766719 11.234147 11.375923 0.000001 0.000001 -0.000002 -34.662015 -0.184238 26.447283 46.355507 -4.003542 -6.653983 -11.850589 -6.258807 -13.672198 -2.367892 -12.892178 -1.582126 0.000000 -0.000000 0.000000 -37.536363 -12.134255 -24.610743 47.736599 7.737739 -1.704265 -12.348939 2.059457 13.486302 -6.320046 9.408590 10.890974 0.000000 0.000000 -0.000000 
-1.146687 76.102600 1.471043 0.526862 1.027662 -0.873896 15.669781 -0.264678 1.130511 19.038230 0.017784 1.270436 13.214247 -0.162950 1.201004 2.981598 -0.915419 0.127354 -21.725500 3.041512 -1.451454 0.000000 0.000000 -0.000000 18.156818 -16.820068 9.890091 -25.359311 -19.919069 -36.451258 -6.589282 -61.086002 -24.146389 -55.424072 -20.605861 -15.451481 0.652343 9.453937 -24.543689 0.393116 2.026194 -21.957649 0.522841 0.707777 -27.284565 -0.000000 -0.000000 0.000000 36.774548 8.584259 -16.863116 2.295253 23.044196 15.130542 0.424780 18.444388 14.528074 -0.000001 0.000001 -0.000002 15.173947 11.653531 -6.968778 -26.925063 12.485913 46.113138 -38.428676 60.758330 41.594647 -9.225688 7.490614 13.452993 36.552946 1.507463 22.538817 4.084657 -22.101720 -17.197050 3.657508 -12.797964 -19.109073 0.000000 0.000000 -0.000002 18.028066 -2.592461 38.845909 -2.784646 7.547187 29.949840 -4.219056 10.567132 10.457510 -0.000002 -0.000001 0.000002 -34.234383 -0.688045 25.937186 45.133764 -3.012146 -5.812009 -11.033928 -5.831098 -14.733058 -2.298258 -12.892263 -1.582020 0.000000 0.000000 0.000000 -37.451857 -12.164849 -24.130314 47.245504 7.291177 -1.469424 -12.090784 2.190911 13.075462 -6.345994 9.419166 10.938506 -0.000000 0.000000 -0.000001 
-1.706542 76.397415 1.271321 0.795825 1.123221 -0.816311 15.278838 -0.417380 1.383337 18.624558 -0.113166 1.386858 13.386783 -0.313424 1.290807 2.981577 -0.915419 0.127352 -21.725484 3.041514 -1.451453 -0.000000 -0.000000 0.000000 17.200691 -16.783511 10.756213 -21.868247 -20.583673 -35.970471 -9.215145 -64.988492 -26.708731 -55.837811 -21.152517 -15.812238 0.652340 9.453938 -24.543691 0.393118 2.026195 -21.957651 0.522847 0.707777 -27.284567 0.000001 0.000001 0.000000 36.774548 8.584256 -16.863117 2.295251 23.044193 15.130542 0.424778 18.444388 14.528074 -0.000001 0.000000 -0.000001 13.778313 10.767112 -6.582299 -26.126107 13.346830 46.791266 -37.349339 60.832247 41.422546 -6.602291 11.335581 12.330862 34.961119 1.749214 23.386134 3.622963 -22.580780 -16.331119 3.166977 -12.968059 -18.022446 0.000001 0.000001 -0.000002 17.871772 -3.813319 38.779229 -2.312077 6.735809 28.923624 -3.623555 9.790868 9.420130 0.000005 -0.000000 -0.000002 -33.788929 -1.147033 25.494123 43.520743 -2.269572 -4.966365 -9.977167 -5.417990 -15.825077 -2.227586 -12.892339 -1.581908 0.000000 -0.000000 -0.000000 -37.520097 -12.283053 -23.580289 46.836994 6.749887 -1.323736 -11.834018 2.326341 12.562057 -6.359400 9.429276 10.993250 -0.000000 0.000000 0.000000 
-2.661870 76.821983 0.837905 1.120250 2.267049 -0.798831 14.813745 -0.509440 1.573892 18.199343 -0.183686 1.469074 13.461657 -0.389600 1.361331 2.950250 -1.280474 0.242474 -21.819128 2.818846 -1.360220 -0.000004 -0.000000 0.000000 16.262641 -17.027703 11.921453 -18.320852 -20.823107 -35.258256 -13.015900 -68.986318 -30.460301 -56.382433 -21.770731 -16.333844 0.652343 9.453937 -24.543689 0.393119 2.026194 -21.957653 0.522847 0.707776 -27.284569 -0.000002 -0.000000 -0.000003 36.774544 8.584256 -16.863116 2.295252 23.044194 15.130542 0.424779 18.444388 14.528072 0.000001 0.000000 -0.000002 12.311066 9.789479 -6.222249 -25.485403 14.107372 47.181687 -35.624177 60.677734 40.727240 -3.774573 15.391094 10.616468 33.271614 1.996063 24.313624 3.148918 -23.107047 -15.410111 2.659483 -13.160542 -16.863228 -0.000000 -0.000000 -0.000001 17.691284 -5.112374 38.703042 -1.839751 5.851810 27.844641 -3.023030 8.946142 8.325760 -0.000001 -0.000001 -0.000000 -33.570363 -1.804231 25.054911 40.435485 -2.418263 -4.196545 -7.654798 -5.230787 -16.800370 -2.182643 -12.892467 -1.581181 0.000000 0.000000 -0.000000 -37.788790 -13.055146 -22.708709 47.059409 4.864529 -1.662110 -12.023606 2.765312 11.248025 -5.729631 9.543791 11.637683 0.000001 0.000000 0.000001 
